<svg width="584" height="615" viewBox="0 0 584 615" fill="none" xmlns="http://www.w3.org/2000/svg">
<path d="M262.596 471.064C274.114 492.739 268.829 521.187 282.745 538.475C291.966 549.93 308.418 554.954 320.205 554.381C330.74 553.869 346.209 548.933 349.267 536.642C354.507 515.575 326.407 503.073 326.424 500.234C326.602 470.705 325.64 478.725 323.177 460.288C320.572 440.785 312.076 401.29 295.443 398.419C280.195 395.787 244.592 387.356 236.166 397.566C224.586 411.598 254.273 455.403 262.596 471.064Z" fill="white" stroke="white"/>
<path d="M262.596 471.064C264.507 477.251 268.829 521.188 282.745 538.475C291.966 549.93 308.418 554.954 320.205 554.381C330.74 553.869 346.209 548.933 349.267 536.642C354.507 515.575 326.407 503.073 326.424 500.234C326.602 470.705 326.883 470.078 324.881 469.587C305.061 464.721 260.184 463.259 262.596 471.064Z" fill="#0053AD" stroke="#0053AD"/>
<path d="M350.366 446.256C369.141 462.067 374.853 490.434 394.215 501.279C407.044 508.466 424.183 506.988 434.905 502.058C444.488 497.652 456.997 487.3 455.248 474.756C452.249 453.255 422.035 451.87 420.47 449.502C403.219 423.399 407.952 415.477 394.005 400.721C380.058 385.965 346.413 381.957 329.91 385.499C314.781 388.747 321.173 398.125 317.166 410.742C311.658 428.081 336.801 434.832 350.366 446.256Z" fill="white" stroke="white"/>
<path d="M362.403 460.61C366.844 465.324 375.837 493.706 395.942 503.103C409.264 509.329 428.839 506.439 439.17 500.736C448.404 495.639 458.418 485.491 455.753 473.109C451.186 451.886 422.715 451.058 421.023 448.778C416.524 442.715 409.751 429.234 408.718 425.89C407.685 422.546 356.802 454.663 362.403 460.61Z" fill="#0053AD" stroke="#0053AD"/>
<path d="M388.919 290.007C398.058 271.528 399.797 266.713 405.428 245.247C409.003 231.618 411.093 224.736 407.786 226.255C398.963 230.307 387.949 229.216 383.606 228.15C377.464 226.642 365.334 216.441 363.533 214.245C361.407 211.651 362.799 220.051 357.43 232.548C348.616 253.065 340.192 271.833 323.095 293.655C313.552 305.835 328.68 329.025 341.272 333.112C364.517 340.658 381.056 305.903 388.919 290.007Z" fill="white" stroke="white"/>
<path d="M362.149 214.193C362.149 214.193 363.499 203.319 359.957 191.854C356.433 180.449 340.441 165.961 352.863 162.123C363.849 158.729 373.724 177.134 373.724 177.134C373.724 177.134 376.484 136.04 390.152 142.229C399.278 146.361 392.468 173.436 392.468 173.436C392.468 173.436 401.99 143.281 412.473 148.415C422.683 153.416 407.531 179.16 406.735 180.497C407.392 179.403 417.949 162.1 425.838 166.265C434.592 170.887 422.04 187.848 419.069 193.476C412.849 205.26 408.704 225.985 408.704 225.985C408.704 225.985 392.884 234.328 382.795 231.897C372.469 229.409 362.149 214.193 362.149 214.193Z" fill="white" stroke="white"/>
<path d="M362.803 206.151C360.78 204.683 361.322 214.289 360.995 219.849C360.873 221.923 372.724 229.545 382.022 231.089C391.884 232.726 405.951 228.929 408.67 227.565C409.776 227.01 413.779 211.925 411.997 212.931C401.747 218.715 394.316 220.067 385.61 218.99C375.88 217.786 363.948 206.981 362.803 206.151Z" fill="#0053AD" stroke="#0053AD"/>
<path d="M366.508 324.847C367.087 327.609 373.779 317.891 376.715 313.844C377.938 312.158 373.738 297.887 367.459 288.968C360.8 279.508 344.287 269.595 341.187 268.302C339.927 267.776 331.373 279.86 333.482 280.626C345.614 285.032 350.562 288.395 356.697 296.479C363.554 305.515 366.181 323.285 366.508 324.847Z" fill="#0053AD" stroke="#0053AD"/>
<path d="M236.722 307.906C229.876 331.478 231.231 327.396 229.162 349.491C227.791 364.132 228.535 410.13 239.542 423.736C258.17 446.762 293.841 441.936 306.392 440.237C333.517 436.565 349.143 437.341 363.718 422.524C384.427 401.472 372.426 362.321 370.536 342.966C368.601 323.154 360.552 305.728 350.626 292.076C341.526 279.561 317.963 274.567 302.849 271.251C285.078 267.354 241.669 290.875 236.722 307.906Z" fill="white" stroke="white"/>
<path d="M237.189 300.441C237.286 287.654 256.414 280.201 267.221 277.13C279.808 273.552 299.085 272.942 311.686 273.132C324.785 273.328 335.895 272.524 334.55 282.389C333.139 292.736 318.195 302.747 303.297 308.269C286.68 314.427 276.611 317.882 258.285 315.187C246.282 313.422 237.118 309.835 237.189 300.441Z" fill="#0053AD"/>
<path d="M228.985 386.179C227.388 372.542 225.19 378.978 254.973 383.906C287.073 391.257 318.077 388.48 342.974 380.788C372.115 371.784 374.454 356.408 375.979 375.823C377.503 395.239 372.286 392.664 349.174 400.852C304.268 414.727 271.064 407.193 249.811 402.77C226.277 396.992 230.624 400.174 228.985 386.179Z" fill="#0053AD"/>
<path d="M192.445 338.081C176.864 324.582 173.397 320.816 159.894 303.204C151.322 292.023 146.729 286.486 150.367 286.606C160.07 286.926 169.803 281.656 173.395 278.992C178.475 275.224 185.709 261.122 186.518 258.4C187.475 255.186 189.443 263.469 199.232 272.913C215.302 288.417 230.335 302.461 254.548 315.961C268.062 323.497 263.092 350.735 253.065 359.379C234.554 375.335 205.849 349.694 192.445 338.081Z" fill="white" stroke="white"/>
<path d="M187.774 257.816C187.774 257.816 182.32 248.314 181.147 236.371C179.981 224.491 189.116 204.942 176.177 206.212C164.733 207.336 162.755 228.129 162.755 228.129C162.755 228.129 144.3 191.308 134.094 202.306C127.279 209.65 144.041 231.976 144.041 231.976C144.041 231.976 123.587 207.86 115.909 216.652C108.431 225.216 132.369 243.086 133.62 244.01C132.591 243.256 116.158 231.39 110.497 238.284C104.215 245.935 122.355 256.714 127.273 260.753C137.571 269.209 149.416 286.713 149.416 286.713C149.416 286.713 167.232 288.281 175.594 282.133C184.151 275.841 187.774 257.816 187.774 257.816Z" fill="white" stroke="white"/>
<path d="M184.058 250.655C185.356 248.518 188.574 257.584 191.028 262.585C191.944 264.45 183.968 276.065 175.993 281.089C167.534 286.416 153.094 288.361 150.059 288.157C148.824 288.073 139.293 275.715 141.326 275.952C153.015 277.316 160.391 275.687 168.001 271.323C176.506 266.446 183.324 251.863 184.058 250.655Z" fill="#0053AD" stroke="#0053AD"/>
<path d="M226.597 361.529C227.133 364.299 217.2 357.929 212.926 355.335C211.146 354.254 209.493 339.47 211.829 328.815C214.307 317.515 225.693 301.982 228.051 299.59C229.01 298.617 241.575 306.446 239.926 307.969C230.446 316.729 227.187 321.745 224.66 331.574C221.836 342.56 226.294 359.962 226.597 361.529Z" fill="#0053AD" stroke="#0053AD"/>
<ellipse cx="272.248" cy="242.433" rx="76.9194" ry="67.0374" transform="rotate(-11.3989 272.248 242.433)" fill="white"/>
<path d="M251.369 196.099C236.888 203.701 229.057 212.637 224.719 228.407C221.011 241.884 221.754 251.499 227.885 264.061C233.441 275.443 239.813 280.699 250.784 287.028C268.786 297.415 283.97 297.494 303.828 291.358C322.937 285.454 332.915 280.346 338.643 261.762C343.614 245.631 342.703 225.941 332.777 212.289C323.677 199.774 314.08 192.558 298.966 189.243C281.196 185.345 267.478 187.644 251.369 196.099Z" fill="#0053AD" stroke="#0053AD"/>
<path d="M270.301 207.363C262.751 210.703 259.435 214.285 259.317 220.248C259.216 225.344 261.193 228.852 266.897 233.242C272.066 237.219 276.754 238.912 284.395 240.827C296.933 243.97 306.129 243.428 317.164 240.425C327.783 237.534 333.006 235.28 333.517 228.23C333.96 222.11 330.281 214.902 322.108 210.255C314.616 205.994 307.666 203.701 297.998 203.051C286.632 202.286 278.7 203.647 270.301 207.363Z" fill="#8BB0D8"/>
<path d="M193.633 239.581C197.622 238.349 202.142 239.889 206.253 243.553C210.356 247.21 213.979 252.928 216.117 259.847C218.255 266.766 218.489 273.531 217.164 278.865C215.836 284.21 212.972 288.031 208.983 289.264C204.994 290.496 200.474 288.956 196.363 285.292C192.259 281.635 188.637 275.918 186.499 268.998C184.361 262.079 184.127 255.314 185.452 249.98C186.78 244.635 189.643 240.814 193.633 239.581Z" fill="#0053AD" stroke="#0053AD"/>
<ellipse cx="197.008" cy="265.751" rx="11.5" ry="21.5" transform="rotate(-17.17 197.008 265.751)" fill="#003873"/>
<path d="M384.865 46.544C386.503 42.0556 392.901 42.2014 394.333 46.7598L401.196 68.614C401.838 70.6578 403.711 72.0656 405.853 72.1144L429.188 72.6463C434.083 72.7579 435.917 79.1095 431.836 81.8133L413.041 94.2639C411.184 95.4943 410.365 97.805 411.032 99.9304L417.705 121.177C419.151 125.78 413.883 129.559 409.987 126.714L390.947 112.813C389.259 111.58 386.981 111.528 385.238 112.683L365.585 125.702C361.563 128.366 356.472 124.352 358.126 119.82L365.76 98.8986C366.524 96.8058 365.811 94.4601 364.012 93.1464L345.804 79.8525C341.85 76.9655 343.972 70.7041 348.866 70.8156L372.202 71.3475C374.344 71.3963 376.278 70.0753 377.013 68.0628L384.865 46.544Z" fill="#FFCE3C"/>
<path d="M89.9909 317.83C88.5826 315.333 91.1436 312.472 93.7807 313.596L107.324 319.371C108.506 319.876 109.878 319.571 110.736 318.613L120.756 307.42C122.715 305.231 126.327 306.871 125.969 309.787L124.196 324.208C124.033 325.535 124.767 326.81 125.997 327.334L139.189 332.959C141.852 334.095 141.521 337.97 138.704 338.638L123.965 342.132C122.744 342.421 121.832 343.44 121.679 344.685L119.831 359.72C119.478 362.593 115.663 363.349 114.241 360.827L107.196 348.336C106.539 347.171 105.191 346.582 103.891 346.89L89.7524 350.242C86.894 350.919 84.8659 347.51 86.8252 345.321L96.8455 334.129C97.7029 333.171 97.8549 331.773 97.2234 330.654L89.9909 317.83Z" fill="#FFCE3C"/>
<path d="M476.707 361.164C474.839 361.568 473.523 359.372 474.76 357.915L479.398 352.449C479.953 351.796 480.029 350.862 479.589 350.127L475.855 343.897C474.848 342.218 476.605 340.241 478.391 341.045L484.751 343.908C485.563 344.274 486.52 344.058 487.097 343.378L491.571 338.107C492.819 336.636 495.222 337.611 495.091 339.537L494.589 346.906C494.533 347.741 495.001 348.522 495.764 348.866L502.499 351.897C504.259 352.689 503.987 355.268 502.101 355.676L495.343 357.136C494.472 357.325 493.83 358.067 493.77 358.956L493.296 365.914C493.164 367.868 490.592 368.486 489.586 366.806L485.852 360.576C485.411 359.841 484.551 359.469 483.714 359.65L476.707 361.164Z" fill="#FFCE3C"/>
<path d="M177.824 465.405C176.326 466.591 174.177 465.201 174.644 463.348L177.257 452.987C177.466 452.156 177.123 451.284 176.404 450.819L167.236 444.889C165.591 443.825 166.297 441.276 168.255 441.21L178.826 440.854C179.716 440.824 180.48 440.208 180.698 439.344L183.248 429.231C183.72 427.36 186.307 427.176 187.038 428.962L191.204 439.131C191.521 439.905 192.286 440.4 193.122 440.372L204.105 440.001C206.034 439.936 206.927 442.371 205.413 443.568L197.235 450.042C196.536 450.595 196.288 451.543 196.626 452.368L200.635 462.156C201.377 463.968 199.342 465.657 197.698 464.593L188.53 458.663C187.81 458.197 186.874 458.242 186.202 458.774L177.824 465.405Z" fill="#FFCE3C"/>
</svg>
