<svg width="424" height="363" viewBox="0 0 424 363" fill="none" xmlns="http://www.w3.org/2000/svg">
<path d="M372.221 73.4987C368.221 71.998 50.6225 13.1208 45.2205 19.9978C39.7202 26.9998 36.4994 190 36.4995 196C36.4995 202 155.5 327.5 155.5 327.5C155.5 327.5 376.175 286.816 382.721 276.998C390.721 264.998 397.033 256.96 397.221 243.498C397.416 229.482 386.721 212.498 386.721 209.498C386.721 203.494 401.72 201.499 400.721 179.498C399.63 155.499 382.721 152.527 382.721 147.998C382.721 144.498 397.221 131.058 397.221 109.498C397.221 83.4987 376.22 74.9995 372.221 73.4987Z" fill="#800020" stroke="white" stroke-width="6"/>
<path d="M369.22 138.5C354.337 148.422 169.719 181.511 161.719 184.013C156.947 185.505 45.9789 78.9873 45.7204 76.9999C44.6134 68.4873 46.7216 45.987 47.7225 32.9549C48.5615 22.03 149.219 133 161.719 129.5C174.238 125.995 358.22 86.4998 362.22 86.4998C372.804 86.4998 376.72 93.4998 381.72 107C385.054 116 375.221 134.5 369.22 138.5Z" fill="#FFE7D8" stroke="#FFE7D8"/>
<path d="M376.72 200.498C361.837 210.42 169.254 248.342 161.254 250.844C156.482 252.336 42.4788 140.987 42.2204 139C41.1134 130.487 42.2216 107.487 43.2224 94.455C44.0614 83.5301 148.754 203.998 161.254 200.498C173.772 196.993 361.22 155.5 365.22 155.5C375.804 155.5 381.72 159.5 386.72 173C390.054 182 382.721 196.498 376.72 200.498Z" fill="#FFE7D8" stroke="#FFE7D8"/>
<path d="M373.72 269C358.837 278.922 168.788 315.175 160.788 317.677C156.016 319.169 40.9788 192.488 40.7204 190.5C39.6134 181.988 41.7195 165.032 42.7204 152C43.5594 141.075 148.288 266 160.788 262.5C173.307 258.995 360.72 220 364.72 220C375.304 220 378.72 224 383.72 237.5C387.054 246.5 379.721 265 373.72 269Z" fill="#FFE7D8" stroke="#FFE7D8"/>
<path d="M312.922 148.498C308.922 145.498 260.49 153.082 257.916 159.921C255.341 166.759 253.922 261.999 257.916 269.998C261.894 277.967 282.344 233.681 285.922 230.998C287.922 229.499 311.533 259.998 312.922 257.498C315.422 252.998 316.363 151.079 312.922 148.498Z" fill="#BA3248" stroke="#BA3248"/>
<path d="M205.78 17.1997C203.743 22.0623 201.691 31.4408 203.329 30.4757C204.673 29.6836 205.191 28.5011 205.191 26.9408C205.191 25.3047 205.404 22.5876 206.191 19.9408C207.72 14.8016 214.191 9.41613 213.691 8.44082C213.37 7.81433 212.953 7.5945 212.691 6.94082C211.691 4.44072 207.647 12.7445 205.78 17.1997Z" fill="#993600" stroke="#993600"/>
<path d="M176.808 82.6042C162.842 74.8008 160.339 53.3125 162.808 44.1037C165.277 34.8949 170.809 29.6044 179.309 24.1035C187.809 18.6025 198.809 28.1027 204.809 28.1027C211.309 28.1027 218.412 22.4955 224.309 24.1036C235.309 27.1033 246.648 40.36 246.309 52.1033C245.888 66.631 239.371 75.9966 227.308 84.1038C210.933 95.1095 193.809 92.1027 176.808 82.6042Z" fill="#C8012C" stroke="#C8012C"/>
</svg>
